<?xml version="1.0" encoding="iso-8859-1"?>
<!-- Uploaded to: SVG Repo, www.svgrepo.com, Generator: SVG Repo Mixer Tools -->
<svg height="800px" width="800px" version="1.1" id="Capa_1" xmlns="http://www.w3.org/2000/svg" xmlns:xlink="http://www.w3.org/1999/xlink" 
	 viewBox="0 0 508.868 508.868" xml:space="preserve">
<g>
	<path style="fill:#010002;" d="M367.692,109.681c-47.967,0-90.397,24.068-115.923,60.738
		c-25.879-32.613-65.824-53.586-110.587-53.586C63.332,116.834,0,180.172,0,258.016c0,51.192,27.402,96.103,68.298,120.856
		c21.288,12.891,46.232,20.315,72.883,20.315c26.646,0,51.59-7.43,72.873-20.309c17.046-10.312,31.693-24.166,43.034-40.478
		c10.481,13.217,23.23,24.552,37.72,33.32c21.283,12.885,46.237,20.315,72.883,20.315c26.651,0,51.59-7.43,72.867-20.309
		c40.907-24.759,68.309-69.669,68.309-120.861C508.868,173.014,445.535,109.681,367.692,109.681z M205.858,361.222
		c-8.882-12.211-23.426-21.669-40.945-26.233v-3.492c1.773,0.49,3.563,0.794,5.374,0.794c14.68,0,24.623-16.154,25.031-16.839
		c0.577-0.957,0.615-2.148,0.109-3.144c-0.511-0.99-1.518-1.637-2.622-1.713c-3.209-0.212-5.852-1.605-8.104-4.264
		c-3.258-3.867-5.205-9.741-6.358-16.062c3.66-9.078,6.059-18.03,6.059-25.923c0-29.512-14.696-54.184-34.832-59.672
		c-13.549-1.36-17.264-0.642-22.099,1.974c-17.655,8.251-29.507,31.416-29.507,57.692c0,7.778,2.344,16.578,5.907,25.526
		c-1.169,6.592-3.138,12.619-6.364,16.448c-2.252,2.665-4.895,4.063-8.104,4.27c-1.11,0.076-2.116,0.723-2.627,1.719
		c-0.511,0.99-0.473,2.176,0.103,3.138c0.413,0.685,10.356,16.839,25.031,16.839c0,0,0,0,0.011,0c1.953,0,3.883-0.326,5.787-0.897
		v3.519c-17.633,4.531-32.275,14.033-41.195,26.303c-34.364-21.582-57.306-59.716-57.306-103.19
		c0-67.254,54.722-121.971,121.976-121.971c41.359,0,77.898,20.739,99.975,52.313c4.64,6.636,8.643,13.728,11.912,21.24
		c6.451,14.86,10.079,31.22,10.079,48.419c0,14.506-2.605,28.387-7.294,41.288c-2.785,7.685-6.326,15.006-10.53,21.887
		C235.43,337.377,221.903,351.121,205.858,361.222z M432.368,354.069c-8.871-12.216-23.421-21.675-40.934-26.233v-18.395
		c10.046-16.747,19.477-36.589,19.477-52.242c0-29.507-14.696-54.184-34.826-59.667c2.284-7.245-1.768-13.641-1.964-13.957
		c-0.718-1.104-2.04-1.681-3.34-1.392c-1.294,0.272-2.295,1.3-2.507,2.605c-1.017,6.07-9.448,12.107-14.294,14.724
		c-17.655,8.251-29.507,31.411-29.507,57.692c0,15.795,9.595,35.843,19.738,52.683v17.889
		c-17.628,4.531-32.275,14.033-41.195,26.303c-13.886-8.73-25.863-20.201-35.245-33.592c9.339-18.841,14.593-40.053,14.593-62.462
		c0-25.585-6.875-49.572-18.819-70.284c21.419-35.202,60.031-58.834,104.158-58.834c67.249,0,121.971,54.717,121.971,121.966
		C489.663,294.338,466.715,332.466,432.368,354.069z"/>
</g>
</svg>